<svg width="33" height="33" viewBox="0 0 33 33" fill="none" xmlns="http://www.w3.org/2000/svg">
<path d="M29.6864 31.9993L19.5046 21.803C18.5955 22.5313 17.5501 23.1079 16.3683 23.5327C15.1864 23.9576 13.9289 24.17 12.5955 24.17C9.29249 24.17 6.49734 23.0241 4.21007 20.7324C1.9228 18.4406 0.778556 15.6415 0.777344 12.335C0.777344 9.02726 1.92159 6.22814 4.21007 3.93761C6.49856 1.64708 9.29371 0.501214 12.5955 0.5C15.8986 0.5 18.6937 1.64587 20.981 3.93761C23.2683 6.22935 24.4125 9.02848 24.4137 12.335C24.4137 13.6702 24.2016 14.9296 23.7773 16.1131C23.3531 17.2966 22.7773 18.3435 22.0501 19.2539L32.2773 29.4957C32.6107 29.8295 32.7773 30.2392 32.7773 30.7248C32.7773 31.2103 32.5955 31.6351 32.2319 31.9993C31.8986 32.3331 31.4743 32.5 30.9592 32.5C30.444 32.5 30.0198 32.3331 29.6864 31.9993ZM12.5955 20.5285C14.8683 20.5285 16.8004 19.7316 18.3919 18.1378C19.9834 16.544 20.7786 14.6097 20.7773 12.335C20.7773 10.059 19.9816 8.12416 18.3901 6.53038C16.7986 4.9366 14.867 4.14032 12.5955 4.14154C10.3228 4.14154 8.39068 4.93843 6.79916 6.53221C5.20765 8.12598 4.4125 10.0602 4.41371 12.335C4.41371 14.611 5.20947 16.5458 6.80098 18.1396C8.3925 19.7334 10.324 20.5297 12.5955 20.5285Z" fill="#15426B"/>
</svg>
