<svg width="30" height="34" viewBox="0 0 30 34" fill="none" xmlns="http://www.w3.org/2000/svg">
<path d="M29.332 26.9916V28.5631H0.332031V26.9916L3.55425 23.8488V14.4202C3.55425 9.54877 6.82481 5.25877 11.6098 3.87592V3.4202C11.6098 2.58666 11.9493 1.78727 12.5536 1.19787C13.1579 0.608465 13.9774 0.277344 14.832 0.277344C15.6866 0.277344 16.5062 0.608465 17.1105 1.19787C17.7148 1.78727 18.0543 2.58666 18.0543 3.4202V3.87592C22.8393 5.25877 26.1098 9.54877 26.1098 14.4202V23.8488L29.332 26.9916ZM18.0543 30.1345C18.0543 30.968 17.7148 31.7674 17.1105 32.3568C16.5062 32.9462 15.6866 33.2773 14.832 33.2773C13.9774 33.2773 13.1579 32.9462 12.5536 32.3568C11.9493 31.7674 11.6098 30.968 11.6098 30.1345" fill="#15426B"/>
</svg>
