<svg width="67" height="67" viewBox="0 0 67 67" fill="none" xmlns="http://www.w3.org/2000/svg">
<g filter="url(#filter0_d_1816_4074)">
<circle cx="33.2476" cy="29.0176" r="26" fill="white"/>
</g>
<path d="M29.9168 22.4682C29.802 22.5827 29.7109 22.7188 29.6488 22.8686C29.5867 23.0183 29.5547 23.1789 29.5547 23.3411C29.5547 23.5032 29.5867 23.6638 29.6488 23.8135C29.7109 23.9633 29.802 24.0994 29.9168 24.2139L34.7206 29.0177L29.9168 33.8215C29.6853 34.053 29.5552 34.367 29.5552 34.6944C29.5552 35.0218 29.6853 35.3358 29.9168 35.5673C30.1483 35.7987 30.4622 35.9288 30.7896 35.9288C31.117 35.9288 31.431 35.7987 31.6625 35.5673L37.3453 29.8844C37.4601 29.7698 37.5512 29.6338 37.6133 29.484C37.6754 29.3342 37.7074 29.1737 37.7074 29.0115C37.7074 28.8494 37.6754 28.6888 37.6133 28.539C37.5512 28.3893 37.4601 28.2532 37.3453 28.1387L31.6625 22.4558C31.192 21.9853 30.3996 21.9853 29.9168 22.4682Z" fill="#1F5AAB"/>
<defs>
<filter id="filter0_d_1816_4074" x="0.247559" y="0.0175781" width="66" height="66" filterUnits="userSpaceOnUse" color-interpolation-filters="sRGB">
<feFlood flood-opacity="0" result="BackgroundImageFix"/>
<feColorMatrix in="SourceAlpha" type="matrix" values="0 0 0 0 0 0 0 0 0 0 0 0 0 0 0 0 0 0 127 0" result="hardAlpha"/>
<feOffset dy="4"/>
<feGaussianBlur stdDeviation="3.5"/>
<feComposite in2="hardAlpha" operator="out"/>
<feColorMatrix type="matrix" values="0 0 0 0 0 0 0 0 0 0 0 0 0 0 0 0 0 0 0.25 0"/>
<feBlend mode="normal" in2="BackgroundImageFix" result="effect1_dropShadow_1816_4074"/>
<feBlend mode="normal" in="SourceGraphic" in2="effect1_dropShadow_1816_4074" result="shape"/>
</filter>
</defs>
</svg>
