<svg width="15" height="19" viewBox="0 0 15 19" fill="none" xmlns="http://www.w3.org/2000/svg">
<path d="M15 14.6186V15.4717H0V14.6186L1.66667 12.9123V7.79349C1.66667 5.14876 3.35833 2.81969 5.83333 2.06892V1.82151C5.83333 1.36898 6.00893 0.934981 6.32149 0.614992C6.63405 0.295002 7.05797 0.115234 7.5 0.115234C7.94203 0.115234 8.36595 0.295002 8.67851 0.614992C8.99107 0.934981 9.16667 1.36898 9.16667 1.82151V2.06892C11.6417 2.81969 13.3333 5.14876 13.3333 7.79349V12.9123L15 14.6186ZM9.16667 16.3249C9.16667 16.7774 8.99107 17.2114 8.67851 17.5314C8.36595 17.8514 7.94203 18.0312 7.5 18.0312C7.05797 18.0312 6.63405 17.8514 6.32149 17.5314C6.00893 17.2114 5.83333 16.7774 5.83333 16.3249" fill="#15426B"/>
</svg>
