<svg width="19" height="19" viewBox="0 0 19 19" fill="none" xmlns="http://www.w3.org/2000/svg">
<path d="M17.1648 18.7017L11.1193 12.6477C10.5795 13.0801 9.95881 13.4224 9.2571 13.6747C8.5554 13.9269 7.80871 14.0531 7.01704 14.0531C5.05587 14.0531 3.39625 13.3727 2.03818 12.012C0.680114 10.6513 0.000719697 8.98929 0 7.02605C0 5.06209 0.679394 3.4001 2.03818 2.0401C3.39697 0.680104 5.05659 -0.000255842 7.01704 -0.000976562C8.97822 -0.000976562 10.6378 0.679384 11.9959 2.0401C13.354 3.40083 14.0334 5.06281 14.0341 7.02605C14.0341 7.81884 13.9081 8.56659 13.6562 9.26929C13.4044 9.972 13.0625 10.5936 12.6307 11.1342L18.7031 17.2152C18.901 17.4134 19 17.6567 19 17.945C19 18.2333 18.892 18.4855 18.6761 18.7017C18.4782 18.8999 18.2263 18.999 17.9205 18.999C17.6146 18.999 17.3627 18.8999 17.1648 18.7017ZM7.01704 11.8909C8.36648 11.8909 9.51367 11.4178 10.4586 10.4715C11.4036 9.52515 11.8757 8.37668 11.875 7.02605C11.875 5.6747 11.4025 4.52587 10.4576 3.57956C9.51259 2.63326 8.36576 2.16046 7.01704 2.16119C5.66761 2.16119 4.52042 2.63434 3.57545 3.58064C2.63049 4.52695 2.15837 5.67542 2.15909 7.02605C2.15909 8.3774 2.63157 9.52623 3.57653 10.4725C4.5215 11.4188 5.66833 11.8916 7.01704 11.8909Z" fill="#15426B"/>
</svg>
